<svg xmlns="http://www.w3.org/2000/svg" width="500" height="150" fill="none"><path fill-rule="evenodd" d="M0 116.029c.752 8.637 4.581 16.66 10.968 22.86 7.16 6.951 16.682 10.778 26.81 10.778l.947-.011c9.772-.231 18.924-4.033 25.86-10.767l16.008-15.536-7.171-6.958-16.006 15.535c-5.246 5.092-12.221 7.895-19.639 7.895s-14.395-2.803-19.641-7.895-8.134-11.861-8.134-19.061 2.889-13.972 8.134-19.063l15.967-15.498a4.818 4.818 0 000-6.958L18.137 55.852c-10.829-10.51-10.829-27.614 0-38.124 5.417-5.257 12.527-7.884 19.641-7.884s14.224 2.629 19.639 7.884L96.61 55.766a26.43 26.43 0 010 38.127l-16.015 15.545 7.169 6.958 16.015-15.544a36.08 36.08 0 000-52.043L64.586 10.77C57.196 3.594 47.487.009 37.778.009s-19.42 3.585-26.81 10.761C4.344 17.199.688 25.436 0 33.859v5.863c.688 8.424 4.344 16.659 10.968 23.088l12.383 12.019-12.383 12.019C4.579 93.049.752 101.071 0 109.709v6.32z" fill="url(#prefix__A)"/><path fill-rule="evenodd" d="M123.418 0c-10.126 0-19.647 3.829-26.807 10.779L80.602 26.314l7.171 6.958 16.007-15.535c5.245-5.091 12.221-7.897 19.638-7.897s14.396 2.806 19.641 7.897c10.829 10.511 10.829 27.614 0 38.124l-15.967 15.498a4.816 4.816 0 000 6.958l15.967 15.498c10.829 10.51 10.829 27.614 0 38.124-5.245 5.092-12.22 7.895-19.638 7.895s-14.396-2.803-19.641-7.895L64.587 93.901c-5.246-5.094-8.137-11.861-8.137-19.063s2.891-13.97 8.137-19.063L80.602 40.23l-7.169-6.958-16.015 15.544c-7.16 6.952-11.105 16.193-11.105 26.022s3.945 19.07 11.105 26.022l39.193 38.038c7.16 6.951 16.681 10.778 26.807 10.778h.003c10.126 0 19.647-3.827 26.807-10.778 14.784-14.349 14.784-37.693 0-52.041l-12.382-12.019 12.382-12.019c14.784-14.348 14.784-37.695 0-52.041C143.068 3.827 133.547 0 123.418 0z" fill="url(#prefix__B)" opacity=".8"/><path d="M207.243 26.673h14.332v37.36c6.204-3.964 12.115-8.105 22.155-8.105 14.512 0 19.874 10.121 19.874 21.703v43.206h-14.377V77.453c0-6.932-3.535-9.7-8.669-9.7-8.054 0-12.23 1.993-18.938 6.001v47.082h-14.377V26.673zm93.188 82.959c-9.492 0-13.373-1.794-13.373-14.595V84.164c0-15.856 4.132-16.233 15.061-16.233 10.177 0 11.82 1.329 11.82 11.073 0 3.388-2.056 5.182-6.321 5.182h-17.32l5.316 10.851h14.788c11.888 0 17.841-4.894 17.841-15.502 0-21.149-9.127-23.032-26.877-23.032-20.674 0-28.726 4.274-28.726 32.09 0 24.006 4.951 32.82 21.676 32.82 10.29 0 23.136-.221 32.697-3.366v-9.655a171.824 171.824 0 01-26.63 1.24h.048zm58.845-53.616a63.27 63.27 0 0121.494 4.429V26.451h14.283v94.386h-11.408l-2.875-6.644c-6.298 4.361-13.729 6.923-21.45 7.397-16.839 0-21.537-14.35-21.537-32.333 0-18.913 3.148-33.219 21.537-33.219l-.044-.022zm2.852 53.15a40.214 40.214 0 0018.594-4.429V70.322a58.14 58.14 0 00-18.594-2.657c-6.366 0-10.041 3.632-10.041 21.127 0 14.749 3.561 20.374 10.041 20.374zm44.334-71.11c-.194-1.468.873-2.81 2.384-2.998l.579-.013h10.521c1.525-.035 2.789 1.134 2.828 2.613l-.021.399v9.146c.155 1.373-.863 2.611-2.277 2.764l-.53.004h-10.521c-1.519.111-2.845-.994-2.959-2.471l-.004-.297v-9.146zm.844 82.781h14.372V56.991h-14.372v63.847zm57.725-65.042c-12.253 0-22.016 1.085-30.732 4.031v8.969c7.803-.554 22.223-1.395 29.112-1.395 5.752 0 9.289 1.595 9.289 8.593v28.347s-11.409 5.381-19.6 5.381c-3.562 0-6.571-.996-6.571-6.489v-4.163c0-3.167 1.207-6.644 6.044-6.976l11.979-.864 4.794-9.656h-18.941c-12.707 0-18.254 7.552-18.254 16.964v6.489c0 8.992 6.483 16.366 17.823 16.588 10.493.132 22.178-7.109 22.817-7.995l3.078 7.22h11.183V75.571c0-14.86-9.287-19.931-22.021-19.776zm28.936-1.613c.751 0 1.169-.357 1.169-.957 0-.633-.418-.99-1.169-.99h-.869v1.947h.869zm-.869 3.504h-1.269v-6.52h2.321c1.303 0 2.272.893 2.272 2.044 0 .908-.6 1.654-1.469 1.929l1.504 2.547h-1.456l-1.403-2.434h-.5v2.434zm.767 1.606c2.674 0 4.782-2.093 4.782-4.817a4.72 4.72 0 00-4.782-4.801c-2.675 0-4.778 2.075-4.778 4.801s2.103 4.817 4.778 4.817zm0-10.803c3.392 0 6.135 2.693 6.135 5.986s-2.743 6.002-6.135 6.002c-3.373 0-6.083-2.709-6.083-6.002s2.71-5.986 6.083-5.986z" fill-rule="evenodd" fill="#FFF"/><defs><linearGradient id="prefix__A" x1="-.002" y1="0" x2="113.46" y2="150" gradientUnits="userSpaceOnUse"><stop stop-color="#A100FF"/><stop offset="1" stop-color="#01FFFB"/></linearGradient><linearGradient id="prefix__B" x1="43.061" y1="0" x2="161.516" y2="150.691" gradientUnits="userSpaceOnUse"><stop stop-color="#A100FF"/><stop offset="1" stop-color="#01FFFB"/></linearGradient></defs></svg>